HIERARCHY
ROOT Hips
{
	OFFSET 0.000000 0.000000 0.000000
	CHANNELS 6 Xposition Yposition Zposition Zrotation Yrotation Xrotation 
	JOINT LHipJoint
	{
		OFFSET 0.000000 0.000000 0.000000
		CHANNELS 3 Zrotation Yrotation Xrotation
		JOINT LeftUpLeg
		{
			OFFSET 1.363060 -1.794630 0.839290
			CHANNELS 3 Zrotation Yrotation Xrotation
			JOINT LeftLeg
			{
				OFFSET 2.448110 -6.726130 0.000000
				CHANNELS 3 Zrotation Yrotation Xrotation
				JOINT LeftFoot
				{
					OFFSET 2.562200 -7.039590 0.000000
					CHANNELS 3 Zrotation Yrotation Xrotation
					JOINT LeftToeBase
					{
						OFFSET 0.157640 -0.433110 2.322550
						CHANNELS 3 Zrotation Yrotation Xrotation
						End Site
						{
							OFFSET 0.000000 0.000000 0.000000
						}
					}
				}
			}
		}
	}
	JOINT RHipJoint
	{
		OFFSET 0.000000 0.000000 0.000000
		CHANNELS 3 Zrotation Yrotation Xrotation
		JOINT RightUpLeg
		{
			OFFSET -1.305520 -1.794630 0.839290
			CHANNELS 3 Zrotation Yrotation Xrotation
			JOINT RightLeg
			{
				OFFSET -2.542530 -6.985550 0.000000
				CHANNELS 3 Zrotation Yrotation Xrotation
				JOINT RightFoot
				{
					OFFSET -2.568260 -7.056230 0.000000
					CHANNELS 3 Zrotation Yrotation Xrotation
					JOINT RightToeBase
					{
						OFFSET -0.164730 -0.452590 2.363150
						CHANNELS 3 Zrotation Yrotation Xrotation
						End Site
						{
							OFFSET 0.000000 0.000000 0.000000
						}
					}
				}
			}
		}
	}
	JOINT LowerBack
	{
		OFFSET 0.000000 0.000000 0.000000
		CHANNELS 3 Zrotation Yrotation Xrotation
		JOINT Spine
		{
			OFFSET 0.028270 2.035590 -0.193380
			CHANNELS 3 Zrotation Yrotation Xrotation
			JOINT Spine1
			{
				OFFSET 0.056720 2.048850 -0.042750
				CHANNELS 3 Zrotation Yrotation Xrotation
				JOINT Neck
				{
					OFFSET 0.000000 0.000000 0.000000
					CHANNELS 3 Zrotation Yrotation Xrotation
					JOINT Neck1
					{
						OFFSET -0.054170 1.746240 0.172020
						CHANNELS 3 Zrotation Yrotation Xrotation
						JOINT Head
						{
							OFFSET 0.104070 1.761360 -0.123970
							CHANNELS 3 Zrotation Yrotation Xrotation
							End Site
							{
								OFFSET 0.000000 0.000000 0.000000
							}
						}
					}
				}
				JOINT LeftShoulder
				{
					OFFSET 0.000000 0.000000 0.000000
					CHANNELS 3 Zrotation Yrotation Xrotation
					JOINT LeftArm
					{
						OFFSET 3.362410 1.200890 -0.311210
						CHANNELS 3 Zrotation Yrotation Xrotation
						JOINT LeftForeArm
						{
							OFFSET 4.983000 -0.000000 -0.000000
							CHANNELS 3 Zrotation Yrotation Xrotation
							JOINT LeftHand
							{
								OFFSET 3.483560 -0.000000 -0.000000
								CHANNELS 3 Zrotation Yrotation Xrotation
								JOINT LeftFingerBase
								{
									OFFSET 0.000000 0.000000 0.000000
									CHANNELS 3 Zrotation Yrotation Xrotation
									JOINT LeftHandIndex1
									{
										OFFSET 0.715260 -0.000000 -0.000000
										CHANNELS 3 Zrotation Yrotation Xrotation
										End Site
										{
											OFFSET 0.000000 0.000000 0.000000
										}
									}
								}
								JOINT LThumb
								{
									OFFSET 0.000000 0.000000 0.000000
									CHANNELS 3 Zrotation Yrotation Xrotation
									End Site
									{
										OFFSET 0.000000 0.000000 0.000000
									}
								}
							}
						}
					}
				}
				JOINT RightShoulder
				{
					OFFSET 0.000000 0.000000 0.000000
					CHANNELS 3 Zrotation Yrotation Xrotation
					JOINT RightArm
					{
						OFFSET -3.136600 1.374050 -0.404650
						CHANNELS 3 Zrotation Yrotation Xrotation
						JOINT RightForeArm
						{
							OFFSET -5.241900 -0.000000 -0.000000
							CHANNELS 3 Zrotation Yrotation Xrotation
							JOINT RightHand
							{
								OFFSET -3.444170 -0.000000 -0.000000
								CHANNELS 3 Zrotation Yrotation Xrotation
								JOINT RightFingerBase
								{
									OFFSET 0.000000 0.000000 0.000000
									CHANNELS 3 Zrotation Yrotation Xrotation
									JOINT RightHandIndex1
									{
										OFFSET -0.622530 -0.000000 -0.000000
										CHANNELS 3 Zrotation Yrotation Xrotation
										End Site
										{
											OFFSET 0.000000 0.000000 0.000000
										}
									}
								}
								JOINT RThumb
								{
									OFFSET 0.000000 0.000000 0.000000
									CHANNELS 3 Zrotation Yrotation Xrotation
									End Site
									{
										OFFSET 0.000000 0.000000 0.000000
									}
								}
							}
						}
					}
				}
			}
		}
	}
}
MOTION
Frames: 5
Frame Time: 0.008333
-3.834829 17.624888 -0.402187 -171.406547 81.115339 -153.449071 -9.717103 0.860662 3.385625 -16.545487 -5.827650 -33.783898 -1.925083 -0.509278 14.908572 2.926525 14.574887 -7.093536 0.856600 0.000000 -30.228600 9.016944 -3.431507 -1.157035 8.089745 -7.621259 -4.847625 1.239851 -1.456125 19.001351 -0.383309 -2.140562 16.348150 -1.135800 0.000001 -71.425200 -0.834668 -0.060965 -1.919974 -1.122758 -0.086394 -3.644733 -7.682317 0.042214 -1.723756 10.371303 -10.677501 -7.541332 -2.995157 -0.236415 0.045777 0.000000 0.000000 0.000000 6.167942 12.882683 -1.154926 -70.817098 26.447132 30.054229 179.574040 -66.482128 179.935811 8.339240 -9.165023 -0.717436 -0.086750 0.595325 -0.000000 0.000000 0.000000 0.000000 0.000000 0.000000 0.000000 7.885941 -3.044708 -1.284406 80.999426 9.594009 36.366482 178.950901 73.271340 -179.995228 -0.691216 12.367438 -0.081125 0.038563 -0.823527 -0.000000 0.000000 0.000000 0.000000 0.000000 0.000000 0.000000 
-3.601395 17.668246 -0.460706 -170.531348 80.640752 -152.926990 -9.838339 0.950099 3.274861 -17.105879 -4.600011 -33.112440 -2.069444 -0.649804 12.127593 2.550161 13.555237 -4.198407 1.550900 0.000001 -33.412300 9.014420 -3.527524 -1.210035 8.092539 -7.917551 -4.457494 1.111649 -1.571669 19.987674 -0.455339 -2.366020 17.655375 -1.227400 -0.000001 -70.499100 -0.749683 -0.074115 -1.800175 -1.114088 -0.102068 -3.628188 -7.720872 0.028857 -1.741055 10.397830 -10.721878 -7.494957 -2.973125 -0.235375 0.060680 0.000000 0.000000 0.000000 6.376018 12.827374 -1.182574 -71.033549 26.889342 29.862244 179.552106 -66.469961 179.935934 8.286835 -9.118830 -0.708832 -0.081389 0.590336 0.000000 0.000000 0.000000 0.000000 0.000000 0.000000 0.000000 7.768987 -3.097564 -1.325181 81.369871 9.468307 36.338974 178.946457 73.163326 -179.993083 -0.313617 12.164337 -0.035451 0.025298 -0.817987 -0.000000 0.000000 0.000000 0.000000 0.000000 0.000000 0.000000 
-3.370727 17.699835 -0.519783 -169.700019 80.146143 -152.475691 -9.969231 1.047509 3.101078 -17.736211 -3.204616 -32.620788 -2.220794 -0.719565 10.058813 2.183326 12.434517 -1.557169 2.047500 -0.000000 -36.112900 9.007596 -3.600621 -1.251349 8.126311 -8.132886 -4.199477 0.972030 -1.685947 21.332918 -0.565674 -2.925362 18.349791 -1.453400 -0.000000 -69.369600 -0.642322 -0.106124 -1.636317 -1.096653 -0.136067 -3.605305 -7.748541 -0.003464 -1.768252 10.413181 -10.743316 -7.447588 -2.951437 -0.234266 0.075331 0.000000 0.000000 0.000000 6.554138 12.741176 -1.198229 -71.287767 27.281142 29.647121 179.530883 -66.486357 179.935754 8.266179 -9.112811 -0.706108 -0.077131 0.587198 0.000000 0.000000 0.000000 0.000000 0.000000 0.000000 0.000000 7.643006 -3.136798 -1.362503 81.708984 9.313022 36.297293 178.951032 73.100903 -179.991503 0.003271 11.991388 0.001928 0.013155 -0.812420 -0.000000 0.000000 0.000000 0.000000 0.000000 0.000000 0.000000 
-3.143061 17.719596 -0.578981 -169.011347 79.633430 -152.184154 -10.092975 1.148755 2.892260 -18.389485 -1.792538 -32.263174 -2.362817 -0.732109 8.654114 1.857930 11.327432 0.715308 2.351700 0.000000 -38.134800 9.003822 -3.645746 -1.296495 8.163874 -8.305803 -4.065709 0.820802 -1.799184 22.999907 -0.711793 -3.812458 18.486244 -1.811800 -0.000000 -68.132700 -0.530929 -0.156300 -1.433870 -1.074459 -0.186561 -3.576806 -7.767120 -0.052846 -1.804732 10.420883 -10.744091 -7.397927 -2.931875 -0.233244 0.089979 0.000000 0.000000 0.000000 6.703091 12.619488 -1.202358 -71.573020 27.609372 29.412948 179.510769 -66.536921 179.935298 8.277546 -9.138078 -0.708566 -0.074010 0.585595 0.000000 0.000000 0.000000 0.000000 0.000000 0.000000 0.000000 7.520590 -3.165294 -1.395334 82.006371 9.129957 36.240828 178.964430 73.076063 -179.990634 0.236752 11.856402 0.028919 0.002922 -0.807304 -0.000000 0.000000 0.000000 0.000000 0.000000 0.000000 0.000000 
-2.918427 17.727441 -0.638134 -168.489526 79.106334 -152.065559 -10.200245 1.246522 2.677300 -19.001491 -0.507998 -31.980694 -2.477777 -0.703561 7.834265 1.598782 10.359433 2.523218 2.502800 0.000001 -39.321400 9.006109 -3.660438 -1.357978 8.189906 -8.463672 -4.046665 0.659816 -1.911571 24.942404 -0.892766 -5.000047 18.143893 -2.278200 0.000000 -66.857100 -0.423909 -0.222035 -1.202212 -1.049904 -0.250726 -3.543719 -7.777919 -0.116272 -1.848249 10.421911 -10.729037 -7.346536 -2.915176 -0.232371 0.104449 0.000000 0.000000 0.000000 6.823944 12.464043 -1.195988 -71.882293 27.861647 29.167785 179.492192 -66.626866 179.934623 8.318480 -9.181959 -0.715207 -0.071990 0.585100 0.000000 0.000000 0.000000 0.000000 0.000000 0.000000 0.000000 7.406783 -3.187602 -1.423608 82.255947 8.923228 36.170121 178.985784 73.079597 -179.990533 0.376728 11.762874 0.044927 -0.004999 -0.802937 -0.000000 0.000000 0.000000 0.000000 0.000000 0.000000 0.000000 
